# xmcd
#
# Track frame offsets: 
#        150
#        13110
#        35846
#        63136
#        85826
#        128641
#        159691
#        183209
#        200225
#
# Disc length: 2738 seconds
#
# Revision: 1
# Processed by: cddbd v1.5.2PL0 Copyright (c) Steve Scherf et al.
# Submitted via: ExactAudioCopy v0.99pb4
#
DISCID=760ab009
DTITLE=Ernán López-Nussa - From Havana To Rio
DYEAR=2001
DGENRE=Jazz
TTITLE0=Baiao De Lacan
TTITLE1=Mambo Inn
TTITLE2=Fin Del Baile
TTITLE3=Contradanza
TTITLE4=Reencuentruo
TTITLE5=Isla
TTITLE6=Bilongo
TTITLE7=Sophisticated Lady
TTITLE8=Vinheta
EXTD=YEAR: 2001
EXTT0=
EXTT1=
EXTT2=
EXTT3=
EXTT4=
EXTT5=
EXTT6=
EXTT7=
EXTT8=
PLAYORDER=
